<svg id="Layer_1" data-name="Layer 1" xmlns="http://www.w3.org/2000/svg" viewBox="0 0 764.7 563"><defs><style>.cls-1{fill:#5782bb;}.cls-2{fill:#2a2a2a;}.cls-3{fill:#fff;}.cls-4{fill:#e7c3dd;}</style></defs><circle class="cls-1" cx="382.5" cy="199.5" r="199.5"/><path class="cls-2" d="M41.71,485.93V428.34H56.62a26.38,26.38,0,0,1,10.38,2,22.94,22.94,0,0,1,8,5.46,24.19,24.19,0,0,1,5.11,8.36,30.53,30.53,0,0,1,1.8,10.68v4.75a30.42,30.42,0,0,1-1.8,10.66,24.84,24.84,0,0,1-5,8.34A22.53,22.53,0,0,1,67.22,484a25.39,25.39,0,0,1-10,1.94ZM52.9,437.36V477h4.28a12.78,12.78,0,0,0,5.59-1.19A11.39,11.39,0,0,0,67,472.36a16,16,0,0,0,2.63-5.48,26.88,26.88,0,0,0,.91-7.33v-4.83a25.94,25.94,0,0,0-.89-7.06A15.8,15.8,0,0,0,67,442.18a12.12,12.12,0,0,0-4.35-3.56,13.5,13.5,0,0,0-6-1.26Z"/><path class="cls-2" d="M93,428.34h33.3v9H115.08V477h11.23v8.94H93V477H104V437.32H93Z"/><path class="cls-2" d="M167.48,473.9H150.2l-3.4,12H135.09L154,428.34H164l18.51,57.59H170.84Zm-14.55-9.45h11.94L159,443.25Z"/><path class="cls-2" d="M187.69,485.93V428.34H207a36,36,0,0,1,8.57,1,19.14,19.14,0,0,1,6.58,2.89,13.09,13.09,0,0,1,4.21,4.9,15.47,15.47,0,0,1,1.49,7,13.13,13.13,0,0,1-2.16,7.24,13,13,0,0,1-6.23,4.86,13.37,13.37,0,0,1,4.31,1.9,12.14,12.14,0,0,1,3,3,12.38,12.38,0,0,1,1.78,3.76,15.5,15.5,0,0,1,.57,4.21,17.67,17.67,0,0,1-1.42,7.32,14.29,14.29,0,0,1-4.08,5.3,17.77,17.77,0,0,1-6.44,3.2,31.64,31.64,0,0,1-8.55,1.07Zm11.16-33.42h8.26q4.63,0,7.12-1.94a6.67,6.67,0,0,0,2.53-5.58q0-4-2.49-5.79t-7.2-1.8h-8.22Zm0,8V477h9.88c3,0,5.35-.77,7-2.24a7.45,7.45,0,0,0,2.39-5.75,8.33,8.33,0,0,0-2.14-6.17q-2.18-2.22-6.72-2.25Z"/><path class="cls-2" d="M271.82,460.69H248.17V477h27.64v9H237V428.34h38.68v9.06H248.17v14.51h23.65Z"/><path class="cls-2" d="M327.31,437.4H309.55v48.53H298.4V437.4H280.88v-9.06h46.43Z"/><path class="cls-2" d="M369,460.69H345.38V477H373v9h-38.8V428.34h38.68v9.06H345.38v14.51H369Z"/><path class="cls-2" d="M412.1,470.9a7.69,7.69,0,0,0-.53-2.89,6.82,6.82,0,0,0-1.82-2.51,13.61,13.61,0,0,0-3.36-2.14,33.06,33.06,0,0,0-5.16-1.8,47.7,47.7,0,0,1-7.18-2.57,25.87,25.87,0,0,1-6-3.72,17,17,0,0,1-4.17-5.06,13.63,13.63,0,0,1-1.57-6.64,14.1,14.1,0,0,1,1.55-6.61,15.11,15.11,0,0,1,4.27-5.06,20,20,0,0,1,6.44-3.22,27.76,27.76,0,0,1,8.07-1.13,25.13,25.13,0,0,1,8.25,1.3,19.73,19.73,0,0,1,6.43,3.66A16.54,16.54,0,0,1,423,445.23H412.14a11.21,11.21,0,0,0-.69-3.56,7.51,7.51,0,0,0-1.82-2.79,8.32,8.32,0,0,0-3-1.82,12.52,12.52,0,0,0-4.22-.65,13.49,13.49,0,0,0-3.93.53,8.53,8.53,0,0,0-2.91,1.51,6.41,6.41,0,0,0-1.8,2.29,6.72,6.72,0,0,0-.61,2.87,5.42,5.42,0,0,0,.81,2.92,8,8,0,0,0,2.35,2.36,19.43,19.43,0,0,0,3.74,1.92,46.92,46.92,0,0,0,5,1.62,42.44,42.44,0,0,1,7.27,2.81,23.14,23.14,0,0,1,5.72,3.93,16.62,16.62,0,0,1,3.71,5.18,15.34,15.34,0,0,1,1.33,6.47,14.13,14.13,0,0,1-5.73,11.72,19.11,19.11,0,0,1-6.41,3.09,29.75,29.75,0,0,1-8.11,1.05,30.25,30.25,0,0,1-5.44-.5,25.13,25.13,0,0,1-5.18-1.52,22.57,22.57,0,0,1-4.61-2.57,17.51,17.51,0,0,1-3.69-3.6,16.38,16.38,0,0,1-2.46-4.67,17.86,17.86,0,0,1-.89-5.77h10.92a11.64,11.64,0,0,0,.91,4.47,7.92,7.92,0,0,0,2.31,3,9.34,9.34,0,0,0,3.56,1.74,17.71,17.71,0,0,0,4.57.56,13.53,13.53,0,0,0,3.94-.52,8.82,8.82,0,0,0,2.9-1.42,6.25,6.25,0,0,0,1.82-2.19A6.35,6.35,0,0,0,412.1,470.9Z"/><path class="cls-2" d="M429.58,469.3c0-22.63,16.63-37.57,36.52-37.57,17.53,0,28.68,11.91,28.68,28.87,0,14.81-9.93,22.23-18.42,22.23-4.68,0-8.49-2.21-9.34-6.16h-.17a13,13,0,0,1-9.74,5.41c-6.33,0-10.68-4.77-10.68-12.19,0-9.88,7.08-19.85,16.37-19.85a6.35,6.35,0,0,1,6.14,4h.16l1.18-3.37h7.31l-3.68,17.84c-1.15,4.7.1,7,3.68,7,4.92,0,9.69-5.71,9.69-14.59,0-11.59-6.24-22-22.14-22-13.84,0-27.53,11.84-27.53,30.07,0,16,11.06,23.62,23.66,23.62a28.48,28.48,0,0,0,12.3-3.11l2.6,6.48a32.52,32.52,0,0,1-15.86,3.84C444.09,499.83,429.58,490,429.58,469.3ZM465,470.94,467,460a4.19,4.19,0,0,0-3.78-2.34c-4.81,0-7.78,6.69-7.78,11.54,0,3.61,1.61,5.41,4.27,5.41C461.36,474.6,463,473.62,465,470.94Z"/><path class="cls-2" d="M551.26,485.93H537.45V461.88H517v24.05H503.12V428.34H517V451.2h20.44V428.34h13.81Z"/><path class="cls-2" d="M608.8,458.32a34,34,0,0,1-3.12,14.91,23.07,23.07,0,0,1-8.88,10,24.77,24.77,0,0,1-13.11,3.5,25.1,25.1,0,0,1-13.05-3.38,23.07,23.07,0,0,1-8.88-9.67,33,33,0,0,1-3.34-14.44V456a34.08,34.08,0,0,1,3.1-14.93,23.09,23.09,0,0,1,8.9-10,26.34,26.34,0,0,1,26.24,0,23.37,23.37,0,0,1,8.92,9.91,33,33,0,0,1,3.22,14.73Zm-14.12-2.41q0-8.58-2.86-13a9.19,9.19,0,0,0-8.21-4.45q-10.44,0-11,15.66l0,4.23q0,8.46,2.8,13a9.19,9.19,0,0,0,8.35,4.55,9.07,9.07,0,0,0,8.11-4.47q2.85-4.47,2.88-12.85Z"/><path class="cls-2" d="M634.2,428.34l12.85,40.07,12.81-40.07h18.28v57.59H664.21V472.48L665.56,445l-13.92,41h-9.18l-14-41,1.34,27.57v13.45H616V428.34Z"/><path class="cls-2" d="M722.67,461.48H700.84v13.77h25.79v10.68H687V428.34h39.75v10.72H700.84V451.2h21.83Z"/><path class="cls-3" d="M269,286.29V188.52h32.43V155.69h32.43V122.87h32.43L365.85,90h33.09v32.91h32.2v32.82h32.43v32.44h32.34L496,287Z"/><rect class="cls-4" x="401" y="210" width="54" height="77"/></svg>