<svg id="Layer_1" data-name="Layer 1" xmlns="http://www.w3.org/2000/svg" viewBox="0 0 1592 399"><defs><style>.cls-1{fill:#5782bb;}.cls-2{fill:#2a2a2a;}.cls-3{fill:#fff;}.cls-4{fill:#e7c3dd;}</style></defs><circle class="cls-1" cx="199.5" cy="199.5" r="199.5"/><path class="cls-2" d="M467.41,251.23V160.94h23.38A41.48,41.48,0,0,1,507.07,164a36.23,36.23,0,0,1,12.46,8.56,38,38,0,0,1,8,13.11,48,48,0,0,1,2.83,16.75v7.44a47.68,47.68,0,0,1-2.83,16.71,39,39,0,0,1-7.9,13.08,35.26,35.26,0,0,1-12.22,8.53,39.67,39.67,0,0,1-15.75,3ZM485,175.08v62.13h6.7a20,20,0,0,0,8.77-1.86A18,18,0,0,0,507,230a25.33,25.33,0,0,0,4.12-8.59,42.42,42.42,0,0,0,1.43-11.5V202.3a41.09,41.09,0,0,0-1.4-11.07,25.07,25.07,0,0,0-4.15-8.59,19.22,19.22,0,0,0-6.82-5.58,21.21,21.21,0,0,0-9.4-2Z"/><path class="cls-2" d="M547.84,160.94h52.22V175H582.45v62.19h17.61v14H547.84v-14H565V175H547.84Z"/><path class="cls-2" d="M664.61,232.38h-27.1l-5.33,18.85H613.82l29.58-90.29h15.82l29,90.29H669.88Zm-22.82-14.82h18.73l-9.24-33.24Z"/><path class="cls-2" d="M696.3,251.23V160.94h30.32a56.34,56.34,0,0,1,13.43,1.49A29.89,29.89,0,0,1,750.37,167a20.48,20.48,0,0,1,6.61,7.68,24.28,24.28,0,0,1,2.32,11,19.93,19.93,0,0,1-13.14,19,20.75,20.75,0,0,1,6.76,3,19.18,19.18,0,0,1,4.74,4.68,19.38,19.38,0,0,1,2.79,5.9,24.22,24.22,0,0,1,.9,6.6,27.65,27.65,0,0,1-2.23,11.47,22.21,22.21,0,0,1-6.39,8.31,27.88,27.88,0,0,1-10.11,5,49.3,49.3,0,0,1-13.39,1.68Zm17.49-52.4h13q7.25-.06,11.16-3t4-8.74q0-6.33-3.91-9.09t-11.29-2.82H713.79Zm0,12.59v25.73h15.5q7.13-.06,10.88-3.5a11.67,11.67,0,0,0,3.75-9q.06-6.21-3.34-9.68T730,211.42Z"/><path class="cls-2" d="M828.2,211.67H791.12v25.48h43.34v14.08H773.63V160.94h60.65v14.2H791.12V197.9H828.2Z"/><path class="cls-2" d="M915.2,175.14H887.36v76.09H869.87V175.14H842.4v-14.2h72.8Z"/><path class="cls-2" d="M980.62,211.67H943.54v25.48h43.35v14.08H926.05V160.94H986.7v14.2H943.54V197.9h37.08Z"/><path class="cls-2" d="M1048.15,227.66a12.27,12.27,0,0,0-.83-4.52,10.64,10.64,0,0,0-2.86-3.94,20.9,20.9,0,0,0-5.27-3.35,51,51,0,0,0-8.09-2.82,76.23,76.23,0,0,1-11.26-4,41.15,41.15,0,0,1-9.45-5.83,26.85,26.85,0,0,1-6.54-7.94,21.47,21.47,0,0,1-2.45-10.42,22.11,22.11,0,0,1,2.41-10.35,23.85,23.85,0,0,1,6.7-7.94,31.14,31.14,0,0,1,10.11-5.05,43.31,43.31,0,0,1,12.65-1.77,38.88,38.88,0,0,1,12.93,2.05,30.24,30.24,0,0,1,10.08,5.73,26,26,0,0,1,8.93,19.94h-17a17.62,17.62,0,0,0-1.08-5.58,11.76,11.76,0,0,0-2.85-4.37,13,13,0,0,0-4.72-2.86,19.39,19.39,0,0,0-6.6-1,20.74,20.74,0,0,0-6.17.84,13.46,13.46,0,0,0-4.56,2.35,10.17,10.17,0,0,0-2.82,3.6,10.6,10.6,0,0,0-1,4.5,8.47,8.47,0,0,0,1.27,4.58,12.45,12.45,0,0,0,3.69,3.69,30.14,30.14,0,0,0,5.86,3,74.13,74.13,0,0,0,7.78,2.55,66.19,66.19,0,0,1,11.41,4.4,36.33,36.33,0,0,1,9,6.17,26,26,0,0,1,5.83,8.12,24.1,24.1,0,0,1,2.08,10.14,22.22,22.22,0,0,1-9,18.39,29.72,29.72,0,0,1-10,4.83,46.49,46.49,0,0,1-12.71,1.65,47.16,47.16,0,0,1-8.53-.78,38.8,38.8,0,0,1-8.12-2.39,35.14,35.14,0,0,1-7.22-4,27,27,0,0,1-5.8-5.64,25.54,25.54,0,0,1-3.85-7.32,27.9,27.9,0,0,1-1.39-9.05h17.11a18.64,18.64,0,0,0,1.43,7,12.59,12.59,0,0,0,3.63,4.77,15,15,0,0,0,5.58,2.73,27.71,27.71,0,0,0,7.16.87,21.5,21.5,0,0,0,6.17-.81,13.87,13.87,0,0,0,4.56-2.23,9.69,9.69,0,0,0,2.85-3.44A9.94,9.94,0,0,0,1048.15,227.66Z"/><path class="cls-2" d="M1075.55,225.16c0-35.49,26.08-58.92,57.27-58.92,27.48,0,45,18.68,45,45.28,0,23.21-15.58,34.85-28.88,34.85-7.34,0-13.31-3.46-14.66-9.65H1134c-3.53,5-10.07,8.47-15.29,8.47-9.92,0-16.73-7.47-16.73-19.11,0-15.49,11.1-31.12,25.67-31.12,4.15,0,7.5,1.82,9.62,6.3h.25l1.86-5.29h11.46l-5.78,28c-1.79,7.38.16,10.92,5.78,10.92,7.71,0,15.19-9,15.19-22.89,0-18.17-9.78-34.44-34.72-34.44-21.69,0-43.16,18.56-43.16,47.15,0,25.06,17.33,37,37.09,37a44.51,44.51,0,0,0,19.29-4.89l4.08,10.17a51.09,51.09,0,0,1-24.88,6C1098.3,273,1075.55,257.61,1075.55,225.16Zm55.59,2.56,3-17.16a6.54,6.54,0,0,0-5.93-3.67c-7.54,0-12.19,10.48-12.19,18.1,0,5.66,2.53,8.49,6.69,8.49C1125.38,233.48,1127.9,231.94,1131.14,227.72Z"/><path class="cls-2" d="M1266.33,251.23h-21.64v-37.7h-32.06v37.7h-21.77V160.94h21.77v35.84h32.06V160.94h21.64Z"/><path class="cls-2" d="M1356.56,207.94a53.18,53.18,0,0,1-4.9,23.38A36.27,36.27,0,0,1,1337.74,247a38.78,38.78,0,0,1-20.56,5.49,39.33,39.33,0,0,1-20.46-5.3A36.06,36.06,0,0,1,1282.8,232a51.57,51.57,0,0,1-5.24-22.63v-5.08a53.55,53.55,0,0,1,4.86-23.41,36.15,36.15,0,0,1,14-15.66,39,39,0,0,1,20.68-5.52,38.61,38.61,0,0,1,20.46,5.46,36.6,36.6,0,0,1,14,15.53,51.91,51.91,0,0,1,5.06,23.1Zm-22.14-3.78q0-13.46-4.5-20.43a14.41,14.41,0,0,0-12.86-7q-16.38,0-17.3,24.56l-.07,6.63q0,13.27,4.41,20.41t13.08,7.13a14.22,14.22,0,0,0,12.71-7q4.47-7,4.53-20.15Z"/><path class="cls-2" d="M1396.37,160.94l20.15,62.82,20.1-62.82h28.65v90.29h-21.83V230.14l2.11-43.16-21.83,64.25h-14.39l-21.89-64.31,2.11,43.22v21.09h-21.77V160.94Z"/><path class="cls-2" d="M1535.09,212.91h-34.23v21.58h40.43v16.74h-62.2V160.94h62.33v16.8h-40.56v19h34.23Z"/><path class="cls-3" d="M86,286.29V188.52h32.43V155.69h32.43V122.87h32.43L182.85,90h33.09v32.91h32.2v32.82h32.43v32.44h32.34L313,287Z"/><rect class="cls-4" x="218" y="210" width="54" height="77"/></svg>